<svg width="14" height="14" viewBox="0 0 14 14" fill="none" xmlns="http://www.w3.org/2000/svg">
<path d="M2.29697 6.89312C2.31064 6.29565 2.43369 5.71597 2.66474 5.17046C2.90127 4.60991 3.24033 4.10815 3.67236 3.67476C4.10439 3.24136 4.60752 2.90229 5.16806 2.66577C5.74775 2.42104 6.36299 2.29663 6.99873 2.29663C7.63447 2.29663 8.2497 2.42104 8.82802 2.66577C9.38696 2.90181 9.89454 3.24453 10.3224 3.67476C10.4577 3.81011 10.5849 3.95366 10.7024 4.10405L9.87939 4.74663C9.86311 4.75923 9.85071 4.77617 9.84362 4.7955C9.83654 4.81483 9.83505 4.83577 9.83933 4.8559C9.84362 4.87604 9.8535 4.89456 9.86784 4.90933C9.88218 4.9241 9.9004 4.93453 9.92041 4.9394L12.3226 5.52729C12.3909 5.5437 12.4579 5.49175 12.4579 5.42202L12.4688 2.94878C12.4688 2.85718 12.3636 2.80522 12.2925 2.86265L11.5214 3.46558C10.47 2.12026 8.83486 1.25757 6.99736 1.25757C3.86513 1.25757 1.3167 3.76772 1.25791 6.88765C1.25754 6.90224 1.2601 6.91676 1.26544 6.93034C1.27077 6.94393 1.27877 6.95631 1.28896 6.96676C1.29915 6.97721 1.31133 6.98551 1.32479 6.99118C1.33824 6.99684 1.35269 6.99976 1.36728 6.99976H2.1876C2.24775 6.99976 2.2956 6.9519 2.29697 6.89312ZM12.6329 6.99976H11.8126C11.7524 6.99976 11.7046 7.04761 11.7032 7.1064C11.6895 7.70386 11.5665 8.28354 11.3354 8.82905C11.0989 9.3896 10.7599 9.89272 10.3278 10.3248C9.89176 10.7626 9.37333 11.1098 8.80242 11.3464C8.23151 11.5829 7.61943 11.7041 7.00146 11.7029C6.3837 11.704 5.77183 11.5829 5.20115 11.3463C4.63047 11.1098 4.11227 10.7626 3.67646 10.3248C3.54111 10.1894 3.41396 10.0458 3.29638 9.89546L4.11943 9.25288C4.13572 9.24028 4.14811 9.22335 4.1552 9.20401C4.16229 9.18468 4.16377 9.16375 4.15949 9.14361C4.1552 9.12347 4.14532 9.10495 4.13098 9.09018C4.11664 9.07541 4.09842 9.06498 4.07842 9.06011L1.67627 8.47222C1.60791 8.45581 1.54092 8.50776 1.54092 8.57749L1.53135 11.0521C1.53135 11.1437 1.63662 11.1957 1.70771 11.1382L2.47881 10.5353C3.53017 11.8792 5.16533 12.7419 7.00283 12.7419C10.1364 12.7419 12.6835 10.2304 12.7423 7.11187C12.7426 7.09727 12.7401 7.08276 12.7348 7.06917C12.7294 7.05558 12.7214 7.0432 12.7112 7.03275C12.701 7.0223 12.6889 7.014 12.6754 7.00834C12.662 7.00267 12.6475 6.99975 12.6329 6.99976Z" fill="white"/>
</svg>
