<svg width="14" height="14" viewBox="0 0 14 14" fill="none" xmlns="http://www.w3.org/2000/svg">
<g clip-path="url(#clip0_201_1702)">
<path d="M5.97508 9.51642L3.5 7.04076L4.32483 6.21592L5.97508 7.86559L9.27442 4.56567L10.0998 5.39109L5.97508 9.51642Z" fill="white"/>
<path fill-rule="evenodd" clip-rule="evenodd" d="M0.583313 6.99992C0.583313 3.45617 3.45623 0.583252 6.99998 0.583252C10.5437 0.583252 13.4166 3.45617 13.4166 6.99992C13.4166 10.5437 10.5437 13.4166 6.99998 13.4166C3.45623 13.4166 0.583313 10.5437 0.583313 6.99992ZM6.99998 12.2499C6.31054 12.2499 5.62785 12.1141 4.99089 11.8503C4.35393 11.5864 3.77518 11.1997 3.28767 10.7122C2.80016 10.2247 2.41345 9.64597 2.14961 9.00901C1.88577 8.37205 1.74998 7.68936 1.74998 6.99992C1.74998 6.31048 1.88577 5.62779 2.14961 4.99083C2.41345 4.35387 2.80016 3.77512 3.28767 3.28761C3.77518 2.8001 4.35393 2.41339 4.99089 2.14955C5.62785 1.88571 6.31054 1.74992 6.99998 1.74992C8.39237 1.74992 9.72772 2.30304 10.7123 3.28761C11.6969 4.27217 12.25 5.60753 12.25 6.99992C12.25 8.3923 11.6969 9.72766 10.7123 10.7122C9.72772 11.6968 8.39237 12.2499 6.99998 12.2499Z" fill="white"/>
</g>
<defs>
<clipPath id="clip0_201_1702">
<rect width="14" height="14" fill="white"/>
</clipPath>
</defs>
</svg>
