<svg width="28" height="28" viewBox="0 0 28 28" fill="none" xmlns="http://www.w3.org/2000/svg">
<path d="M20.0001 7.25H8.00012C7.17287 7.25 6.50012 7.92275 6.50012 8.75V19.25C6.50012 20.0773 7.17287 20.75 8.00012 20.75H20.0001C20.8274 20.75 21.5001 20.0773 21.5001 19.25V8.75C21.5001 7.92275 20.8274 7.25 20.0001 7.25ZM8.00012 19.25V10.25H20.0001L20.0016 19.25H8.00012Z" fill="white" stroke="#457EFF" stroke-width="0.5"/>
<path d="M11.9698 11.9697L9.18958 14.75L11.9698 17.5302L13.0303 16.4697L11.3106 14.75L13.0303 13.0302L11.9698 11.9697ZM16.0303 11.9697L14.9698 13.0302L16.6896 14.75L14.9698 16.4697L16.0303 17.5302L18.8106 14.75L16.0303 11.9697Z" fill="white" stroke="#457EFF" stroke-width="0.5"/>
<rect width="28" height="28" rx="8" fill="white" fill-opacity="0.13"/>
</svg>
