<svg width="41" height="40" viewBox="0 0 41 40" fill="none" xmlns="http://www.w3.org/2000/svg">
<path d="M22.261 1.27398C22.2936 1.18151 22.4337 1.1808 22.4672 1.27294C22.6649 1.81629 23.1239 2.9534 23.6825 3.51204C24.2427 4.07219 25.3723 4.52001 25.9077 4.71066C25.9993 4.74326 26.0006 4.88132 25.9097 4.91566C25.3751 5.11755 24.2434 5.58889 23.6825 6.14973C23.1235 6.70871 22.6643 7.82391 22.4668 8.35518C22.4329 8.44645 22.2944 8.44573 22.2614 8.35413C22.0698 7.82243 21.623 6.70834 21.0644 6.14973C20.5037 5.58907 19.3603 5.11785 18.8194 4.91585C18.728 4.88173 18.7293 4.74288 18.8213 4.71049C19.3631 4.51975 20.5044 4.07203 21.0644 3.51204C21.6226 2.95376 22.0693 1.81774 22.261 1.27398Z" fill="#4C4F56"/>
<path d="M16.1413 34.2381C16.1761 34.1464 16.3197 34.1456 16.3554 34.237C16.4775 34.5496 16.6921 35.0276 16.9454 35.2809C17.1999 35.5355 17.6768 35.7462 17.9858 35.8646C18.0766 35.8993 18.078 36.0406 17.9878 36.0769C17.6788 36.2016 17.2005 36.4217 16.9454 36.6768C16.6917 36.9305 16.4769 37.4005 16.3549 37.7066C16.3189 37.7971 16.1769 37.7963 16.1417 37.7055C16.0231 37.3994 15.8131 36.9302 15.5598 36.6768C15.3049 36.4219 14.8222 36.2019 14.5098 36.0772C14.4192 36.041 14.4206 35.8989 14.5118 35.8644C14.8243 35.746 15.3054 35.5353 15.5598 35.2809C15.8128 35.0279 16.0225 34.5507 16.1413 34.2381Z" fill="#4C4F56"/>
<path d="M3.79574 18.805C3.95964 18.4486 4.5628 18.4456 4.72928 18.8008C4.94415 19.2591 5.21888 19.7454 5.5247 20.0513C5.83471 20.3613 6.32637 20.6355 6.78575 20.8472C7.1388 21.0099 7.1444 21.6013 6.79367 21.7689C6.33202 21.9896 5.83649 22.2726 5.5247 22.5843C5.21745 22.8916 4.94159 23.3738 4.72627 23.8258C4.55876 24.1774 3.96356 24.1744 3.79864 23.8215C3.58797 23.3708 3.31666 22.8906 3.01037 22.5843C2.69931 22.2733 2.20149 21.9909 1.73634 21.7705C1.38374 21.6034 1.38933 21.0079 1.74422 20.8457C2.2071 20.6342 2.70107 20.3606 3.01037 20.0513C3.31526 19.7464 3.58549 19.2621 3.79574 18.805Z" fill="#4C4F56"/>
<path d="M35.465 30.0445C35.6157 29.6824 36.2058 29.6795 36.3595 30.0403C36.6755 30.782 37.1335 31.6898 37.6576 32.2138C38.186 32.7423 39.0964 33.1953 39.8338 33.5039C40.1924 33.654 40.1981 34.2335 39.842 34.3893C39.1032 34.7125 38.1879 35.1826 37.6576 35.713C37.1322 36.2383 36.6732 37.1341 36.3572 37.8623C36.2021 38.2196 35.6193 38.2166 35.4672 37.8581C35.1588 37.1306 34.7087 36.2373 34.1843 35.713C33.6546 35.1833 32.7329 34.7138 31.987 34.3906C31.629 34.2355 31.6346 33.6522 31.9951 33.5028C32.7396 33.1942 33.6565 32.7416 34.1843 32.2138C34.7074 31.6908 35.1566 30.7854 35.465 30.0445Z" fill="#4C4F56"/>
<ellipse cx="21.9949" cy="22.4761" rx="11.3684" ry="11.3684" fill="#4FC786"/>
<ellipse cx="21.9949" cy="22.4761" rx="11.3684" ry="11.3684" fill="#4FC786"/>
<path d="M17.5656 23.3601L20.5954 26.3899L27.1602 19.8252" stroke="white" stroke-width="2" stroke-linecap="round"/>
<path d="M32.9992 9.1174C33.0332 9.02542 33.1755 9.02468 33.2104 9.11633C33.3538 9.49343 33.6285 10.1294 33.9562 10.4571C34.2853 10.7862 34.9186 11.0553 35.2909 11.1941C35.382 11.228 35.3834 11.3681 35.2929 11.4037C34.9209 11.5501 34.2859 11.8319 33.9562 12.1616C33.6281 12.4897 33.3532 13.1143 33.2099 13.4834C33.1747 13.5741 33.034 13.5734 32.9996 13.4823C32.8604 13.1131 32.5922 12.4894 32.2644 12.1616C31.9349 11.8321 31.2939 11.5504 30.9176 11.4039C30.8267 11.3685 30.828 11.2276 30.9196 11.1939C31.2962 11.055 31.9355 10.7861 32.2644 10.4571C32.5918 10.1297 32.8599 9.49462 32.9992 9.1174Z" fill="#4C4F56"/>
</svg>
