<svg width="28" height="28" viewBox="0 0 28 28" fill="none" xmlns="http://www.w3.org/2000/svg">
<rect width="28" height="28" rx="8" fill="black" fill-opacity="0.13"/>
<path d="M16.379 16.4742C17.2805 16.2867 18.0988 15.9627 18.734 15.4872C19.82 14.6742 20.375 13.4187 20.375 12.1789C20.375 11.3089 20.045 10.4967 19.472 9.80895C19.1532 9.4257 20.0863 6.90495 19.2575 7.2897C18.4288 7.6752 17.2137 8.1882 16.577 7.99995C15.8952 7.79895 15.152 7.68795 14.375 7.68795C13.7 7.68795 13.0505 7.7712 12.4445 7.9257C11.564 8.1492 10.7225 7.65345 9.875 7.2897C9.0275 6.9267 9.49025 9.5457 9.23825 9.8562C8.69075 10.5349 8.375 11.3299 8.375 12.1789C8.375 13.4187 9.04625 14.6742 10.1322 15.4864C10.856 16.0279 11.7627 16.3737 12.7775 16.5439" stroke="#457EFF" stroke-width="1.125" stroke-linecap="round" stroke-linejoin="round"/>
<path d="M12.7775 16.5432C12.3425 17.021 12.1258 17.4732 12.1258 17.903V20.75M16.379 16.4742C16.7907 17.0135 16.9962 17.4972 16.9962 17.9262V20.75M7.625 16.751C7.9625 16.7915 8.21225 16.946 8.375 17.2145C8.6195 17.6172 9.52775 19.109 10.5598 19.109H12.125" stroke="#457EFF" stroke-width="1.125" stroke-linecap="round" stroke-linejoin="round"/>
</svg>
