<svg width="26" height="25" viewBox="0 0 26 25" fill="none" xmlns="http://www.w3.org/2000/svg">
<path d="M9.47676 22.25H8.12497C7.98914 22.25 7.85549 22.2185 7.73624 22.1585C7.61699 22.0984 7.51595 22.0118 7.44235 21.9064C7.36875 21.801 7.32495 21.6803 7.31494 21.5552C7.30494 21.4302 7.32905 21.3048 7.38508 21.1906L10.6584 14.5227L5.74333 14.4219L3.95075 16.4267C3.60899 16.8233 3.33629 17 2.64059 17H1.73059C1.58651 17.0043 1.44344 16.9764 1.31349 16.9188C1.18354 16.8612 1.07056 16.7755 0.984107 16.6691C0.863248 16.5186 0.74442 16.2636 0.860201 15.8998L1.86669 12.5717C1.8743 12.5469 1.88344 12.522 1.8936 12.4977C1.89411 12.4953 1.89411 12.4929 1.8936 12.4906C1.88311 12.4663 1.87413 12.4414 1.86669 12.4161L0.859185 9.06687C0.750005 8.71016 0.869341 8.46078 0.989185 8.31406C1.06966 8.21549 1.17407 8.13573 1.29402 8.08118C1.41396 8.02664 1.5461 7.99883 1.67981 8H2.64059C3.16008 8 3.66434 8.21516 3.9609 8.5625L5.71641 10.5336L10.6584 10.4661L7.3861 3.80984C7.32999 3.69568 7.30578 3.57036 7.31568 3.44533C7.32558 3.3203 7.36928 3.19956 7.44277 3.09414C7.51626 2.98872 7.61721 2.90198 7.73639 2.84186C7.85556 2.78175 7.98916 2.75016 8.12497 2.75H9.49149C9.68214 2.75354 9.86947 2.79667 10.0396 2.8762C10.2097 2.95572 10.3582 3.0696 10.4741 3.20937L16.8243 10.3344L19.7579 10.2631C19.9727 10.2523 20.5679 10.2486 20.7055 10.2486C23.5117 10.25 25.1875 11.0909 25.1875 12.5C25.1875 12.9434 24.9955 13.7656 23.7113 14.2887C22.9531 14.5981 21.9415 14.7547 20.7045 14.7547C20.5684 14.7547 19.9748 14.7509 19.7569 14.7402L16.8238 14.668L10.4579 21.793C10.3419 21.9321 10.1935 22.0454 10.0237 22.1246C9.85384 22.2037 9.66694 22.2465 9.47676 22.25Z" fill="#1262AE"/>
</svg>
