<svg width="16" height="19" viewBox="0 0 16 19" fill="none" xmlns="http://www.w3.org/2000/svg">
<path d="M15.1514 6.95828L10.4576 6.17406L8.35935 1.28382C8.30204 1.14993 8.20775 1.04154 8.09129 0.975659C7.79919 0.809888 7.44425 0.948031 7.2982 1.28382L5.19995 6.17406L0.506141 6.95828C0.376733 6.97954 0.258417 7.04967 0.167832 7.15593C0.0583187 7.28533 -0.00202784 7.45942 5.20329e-05 7.63995C0.0021319 7.82047 0.066468 7.99266 0.178924 8.11868L3.57495 11.925L2.77263 17.2998C2.75381 17.4249 2.76585 17.5534 2.80737 17.671C2.84889 17.7886 2.91823 17.8904 3.00754 17.965C3.09684 18.0395 3.20253 18.0839 3.31263 18.0929C3.42272 18.1019 3.53281 18.0753 3.63041 18.016L7.82877 15.4785L12.0271 18.016C12.1418 18.0862 12.2749 18.1096 12.4024 18.0841C12.7241 18.0203 12.9404 17.6696 12.8849 17.2998L12.0826 11.925L15.4786 8.11868C15.5711 8.01454 15.6321 7.87852 15.6506 7.72975C15.7005 7.35783 15.4749 7.01354 15.1514 6.95828Z" fill="#FDBF00"/>
</svg>
