<svg width="26" height="27" viewBox="0 0 26 27" fill="none" xmlns="http://www.w3.org/2000/svg">
<path d="M15.8662 21.9026C15.1023 22.5768 14.0989 22.9859 13 22.9859C11.901 22.9859 10.8976 22.5768 10.1337 21.9026M19.4972 14.5152V11.0693C19.4972 7.4702 16.5991 4.56934 13 4.56934C9.40082 4.56934 6.46352 7.34653 6.46352 11.0693V14.4919C6.46352 15.0153 6.38194 15.5353 6.22192 16.0319L5.42191 18.5144C5.40001 18.5823 5.44892 18.6525 5.51819 18.6525H20.4351C20.5083 18.6525 20.5603 18.5812 20.5378 18.5115L19.7324 16.0121C19.5765 15.5284 19.4972 15.0234 19.4972 14.5152Z" stroke="#171E1D" stroke-width="1.5" stroke-linecap="round"/>
<circle cx="18.8197" cy="6.82777" r="4.09534" fill="#00C29F" stroke="white" stroke-width="1.5"/>
</svg>
