<svg width="548" height="209" viewBox="0 0 548 209" fill="none" xmlns="http://www.w3.org/2000/svg">
<path d="M5.48975 62.4151L53.8955 54.6702L104.883 72.7417L150.061 43.0529L201.049 5.61914L244.936 13.364L296.201 78.5503L344.329 72.7417L392.735 85.6498L440.637 32.9831L488.255 126.956L541.824 170.844" stroke="#00C29F" stroke-width="2"/>
<path d="M53.8955 67.8271L5.48975 75.5719V208.118H541.824V184.001L483.09 135.638L438.139 46.6858L392.735 98.8067L342.38 83.5646L295.055 93.3779L243.773 27.6924L202.047 18.9844L151.06 56.4181L104.883 85.8985L53.8955 67.8271Z" fill="#00C29F" fill-opacity="0.13"/>
<circle cx="5.48975" cy="62.2754" r="5" fill="#00C29F"/>
<circle cx="55.8037" cy="54.9775" r="5" fill="#00C29F"/>
<circle cx="103.602" cy="71.2754" r="5" fill="#00C29F"/>
<circle cx="150.399" cy="42.166" r="5" fill="#00C29F"/>
<circle cx="203.197" cy="5.61914" r="5" fill="#00C29F"/>
<circle cx="246.113" cy="13.2754" r="5" fill="#00C29F"/>
<circle cx="297.293" cy="78.541" r="5" fill="#00C29F"/>
<circle cx="342.527" cy="72.2754" r="5" fill="#00C29F"/>
<circle cx="393.33" cy="84.9443" r="5" fill="#00C29F"/>
<circle cx="440.799" cy="32.7754" r="5" fill="#00C29F"/>
<circle cx="490.375" cy="127.336" r="5" fill="#00C29F"/>
<circle cx="542.782" cy="170.844" r="5" fill="#00C29F"/>
</svg>
