<svg width="46" height="47" viewBox="0 0 46 47" fill="none" xmlns="http://www.w3.org/2000/svg">
<g filter="url(#filter0_d_1_122)">
<circle cx="23" cy="23.4727" r="15" fill="white"/>
<path fill-rule="evenodd" clip-rule="evenodd" d="M22.9954 19.411C21.6181 17.8059 19.3214 17.3741 17.5957 18.8439C15.87 20.3137 15.6271 22.7711 16.9823 24.5094C18.109 25.9547 21.5189 29.0029 22.6365 29.9895C22.7615 30.0999 22.824 30.1551 22.8969 30.1768C22.9606 30.1957 23.0302 30.1957 23.0939 30.1768C23.1668 30.1551 23.2293 30.0999 23.3543 29.9895C24.4719 29.0029 27.8818 25.9547 29.0085 24.5094C30.3637 22.7711 30.1504 20.2982 28.3951 18.8439C26.6398 17.3896 24.3727 17.8059 22.9954 19.411Z" stroke="#171E1D" stroke-width="1.5" stroke-linecap="round" stroke-linejoin="round"/>
</g>
<defs>
<filter id="filter0_d_1_122" x="0" y="0.472656" width="46" height="46" filterUnits="userSpaceOnUse" color-interpolation-filters="sRGB">
<feFlood flood-opacity="0" result="BackgroundImageFix"/>
<feColorMatrix in="SourceAlpha" type="matrix" values="0 0 0 0 0 0 0 0 0 0 0 0 0 0 0 0 0 0 127 0" result="hardAlpha"/>
<feOffset/>
<feGaussianBlur stdDeviation="4"/>
<feComposite in2="hardAlpha" operator="out"/>
<feColorMatrix type="matrix" values="0 0 0 0 0 0 0 0 0 0 0 0 0 0 0 0 0 0 0.08 0"/>
<feBlend mode="normal" in2="BackgroundImageFix" result="effect1_dropShadow_1_122"/>
<feBlend mode="normal" in="SourceGraphic" in2="effect1_dropShadow_1_122" result="shape"/>
</filter>
</defs>
</svg>
