<svg width="46" height="47" viewBox="0 0 46 47" fill="none" xmlns="http://www.w3.org/2000/svg">
<g filter="url(#filter0_d_1_28)">
<circle cx="23" cy="23.4727" r="15" fill="white"/>
<path fill-rule="evenodd" clip-rule="evenodd" d="M22.9953 19.411C21.618 17.8059 19.3213 17.3741 17.5956 18.8439C15.87 20.3137 15.627 22.7711 16.9822 24.5094C18.1089 25.9547 21.5188 29.0029 22.6364 29.9895C22.7614 30.0999 22.8239 30.1551 22.8969 30.1768C22.9605 30.1957 23.0302 30.1957 23.0938 30.1768C23.1667 30.1551 23.2292 30.0999 23.3543 29.9895C24.4719 29.0029 27.8817 25.9547 29.0085 24.5094C30.3636 22.7711 30.1504 20.2982 28.395 18.8439C26.6397 17.3896 24.3726 17.8059 22.9953 19.411Z" stroke="#171E1D" stroke-width="1.5" stroke-linecap="round" stroke-linejoin="round"/>
</g>
<defs>
<filter id="filter0_d_1_28" x="0" y="0.472656" width="46" height="46" filterUnits="userSpaceOnUse" color-interpolation-filters="sRGB">
<feFlood flood-opacity="0" result="BackgroundImageFix"/>
<feColorMatrix in="SourceAlpha" type="matrix" values="0 0 0 0 0 0 0 0 0 0 0 0 0 0 0 0 0 0 127 0" result="hardAlpha"/>
<feOffset/>
<feGaussianBlur stdDeviation="4"/>
<feComposite in2="hardAlpha" operator="out"/>
<feColorMatrix type="matrix" values="0 0 0 0 0 0 0 0 0 0 0 0 0 0 0 0 0 0 0.08 0"/>
<feBlend mode="normal" in2="BackgroundImageFix" result="effect1_dropShadow_1_28"/>
<feBlend mode="normal" in="SourceGraphic" in2="effect1_dropShadow_1_28" result="shape"/>
</filter>
</defs>
</svg>
