<svg width="13" height="14" viewBox="0 0 13 14" fill="none" xmlns="http://www.w3.org/2000/svg">
<g clip-path="url(#clip0_410_7240)">
<path d="M11.3187 13.3524C11.6116 13.6453 12.0865 13.6453 12.3794 13.3524C12.6723 13.0595 12.6723 12.5846 12.3794 12.2917L11.3187 13.3524ZM9.21115 6.5291C9.21115 8.54774 7.57471 10.1842 5.55607 10.1842V11.6842C8.40314 11.6842 10.7111 9.37616 10.7111 6.5291H9.21115ZM5.55607 10.1842C3.53743 10.1842 1.901 8.54774 1.901 6.5291H0.401001C0.401001 9.37616 2.70901 11.6842 5.55607 11.6842V10.1842ZM1.901 6.5291C1.901 4.51045 3.53743 2.87402 5.55607 2.87402V1.37402C2.70901 1.37402 0.401001 3.68203 0.401001 6.5291H1.901ZM5.55607 2.87402C7.57471 2.87402 9.21115 4.51045 9.21115 6.5291H10.7111C10.7111 3.68203 8.40314 1.37402 5.55607 1.37402V2.87402ZM8.17222 10.2059L11.3187 13.3524L12.3794 12.2917L9.23288 9.14525L8.17222 10.2059Z" fill="white"/>
</g>
<defs>
<clipPath id="clip0_410_7240">
<rect width="13" height="13" fill="white" transform="translate(0 0.972656)"/>
</clipPath>
</defs>
</svg>
