<svg width="157" height="41" viewBox="0 0 157 41" fill="none" xmlns="http://www.w3.org/2000/svg">
<path d="M83.1913 34.7096C81.6525 34.7096 80.4051 33.4622 80.4051 31.9234V6.15523C80.4051 4.60626 81.6607 3.35059 83.2097 3.35059C84.7587 3.35059 86.0144 4.60627 86.0144 6.15523V14.9485C86.0144 15.5298 85.3722 15.8818 84.8822 15.569L84.8193 15.5289C84.3901 15.2549 84.363 14.6391 84.7874 14.3579C85.7489 13.7207 86.8056 13.1875 87.9577 12.7583C89.4594 12.1988 90.9611 11.9191 92.4628 11.9191C94.1412 11.9191 95.5987 12.1988 96.8354 12.7583C98.0721 13.3177 99.0291 14.2305 99.7063 15.4967C100.413 16.7334 100.766 18.4117 100.766 20.5318V31.9049C100.766 33.4539 99.5106 34.7096 97.9617 34.7096C96.4127 34.7096 95.157 33.4539 95.157 31.9049V21.5035C95.157 19.8545 94.7595 18.6326 93.9645 17.8376C93.1989 17.0131 92.0359 16.6009 90.4753 16.6009C89.6803 16.6009 88.8852 16.7186 88.0902 16.9542C87.4528 17.1431 86.8816 17.3698 86.3767 17.6344C86.1483 17.7541 86.0139 17.9952 86.0133 18.2531L85.9775 31.9307C85.9734 33.4666 84.7272 34.7096 83.1913 34.7096Z" fill="#171E1D"/>
<path d="M113.601 35.3721C109.95 35.3721 107.211 34.3562 105.386 32.3245C103.56 30.2928 102.647 27.363 102.647 23.5352C102.647 19.4423 103.575 16.4684 105.43 14.6133C107.314 12.7583 110.023 11.8308 113.557 11.8308C116.03 11.8308 118.091 12.2724 119.74 13.1558C121.389 14.0097 122.611 15.3053 123.406 17.0425C124.23 18.7798 124.643 20.944 124.643 23.5352C124.643 27.363 123.686 30.2928 121.772 32.3245C119.887 34.3562 117.164 35.3721 113.601 35.3721ZM113.601 30.7787C114.896 30.7787 115.942 30.4842 116.737 29.8953C117.561 29.3064 118.165 28.4819 118.548 27.4219C118.93 26.3325 119.122 25.0369 119.122 23.5352C119.122 21.8568 118.916 20.4876 118.503 19.4276C118.121 18.3676 117.517 17.5873 116.693 17.0867C115.898 16.5861 114.867 16.3359 113.601 16.3359C112.305 16.3359 111.26 16.6009 110.465 17.1309C109.67 17.6609 109.081 18.4559 108.698 19.5159C108.345 20.5759 108.168 21.9157 108.168 23.5352C108.168 25.8908 108.595 27.6869 109.449 28.9236C110.303 30.1603 111.687 30.7787 113.601 30.7787Z" fill="#171E1D"/>
<path d="M133.078 35.3721C131.488 35.3721 130.134 35.1954 129.015 34.8421C128.322 34.6416 127.646 34.4128 126.987 34.1559C126.25 33.8682 125.79 33.1416 125.79 32.3497V31.0919C125.79 30.0261 126.981 29.3746 127.91 29.8953C128.676 30.2781 129.486 30.5873 130.34 30.8228C131.223 31.0584 132.165 31.1762 133.166 31.1762C134.344 31.1762 135.213 30.9553 135.772 30.5137C136.361 30.0425 136.656 29.4831 136.656 28.8353C136.656 28.2169 136.435 27.7458 135.993 27.4219C135.551 27.0686 134.977 26.7741 134.271 26.5386C133.564 26.303 132.813 26.0675 132.018 25.8319C131.282 25.6552 130.531 25.4197 129.765 25.1252C129.029 24.8308 128.352 24.4333 127.734 23.9327C127.115 23.4321 126.615 22.7991 126.232 22.0335C125.879 21.2385 125.702 20.2815 125.702 19.1626C125.702 17.8376 125.967 16.7186 126.497 15.8058C127.027 14.8931 127.719 14.1569 128.573 13.5975C129.427 13.038 130.369 12.6405 131.4 12.4049C132.43 12.1399 133.431 12.0074 134.403 12.0074C136.081 12.0663 137.436 12.2724 138.466 12.6258C139.126 12.833 139.761 13.0824 140.372 13.374C141.011 13.6788 141.386 14.3405 141.393 15.0481L141.393 15.0975C141.408 16.6043 139.794 17.5778 138.422 16.9542C137.451 16.4831 136.346 16.2475 135.11 16.2475C133.961 16.2475 133.063 16.4536 132.416 16.8659C131.797 17.2487 131.488 17.7934 131.488 18.5001C131.488 19.1184 131.679 19.619 132.062 20.0018C132.445 20.3846 132.946 20.679 133.564 20.8851C134.182 21.0912 134.859 21.2974 135.596 21.5035C136.332 21.7096 137.097 21.9451 137.892 22.2102C138.687 22.4457 139.423 22.7991 140.101 23.2702C140.778 23.7413 141.323 24.3744 141.735 25.1694C142.177 25.935 142.397 26.9655 142.397 28.2611C142.368 29.9689 141.912 31.3528 141.028 32.4129C140.145 33.4434 138.982 34.1943 137.539 34.6654C136.126 35.1365 134.639 35.3721 133.078 35.3721Z" fill="#171E1D"/>
<path d="M152.893 35.4163C150.596 35.4163 148.844 34.8568 147.637 33.7379C146.43 32.5895 145.826 30.9406 145.826 28.7911V17.602C145.826 17.1954 145.497 16.8659 145.09 16.8659H143.117C142.711 16.8659 142.381 16.5363 142.381 16.1297V13.1852C142.381 12.7787 142.711 12.4491 143.117 12.4491H145.09C145.497 12.4491 145.826 12.1195 145.826 11.713V9.2028C145.826 7.60505 147.121 6.30982 148.719 6.30982C150.317 6.30982 151.612 7.60505 151.612 9.2028V11.713C151.612 12.1195 151.942 12.4491 152.348 12.4491H154.571C155.791 12.4491 156.78 13.4378 156.78 14.6575C156.78 15.8771 155.791 16.8659 154.571 16.8659H152.348C151.942 16.8659 151.612 17.1954 151.612 17.602V27.9078C151.612 28.8206 151.789 29.4978 152.142 29.9395C152.496 30.3812 153.114 30.602 153.997 30.602C154.468 30.602 154.954 30.5284 155.455 30.3812C156.049 30.1829 156.78 30.6024 156.78 31.2293V33.4137C156.78 34.1538 156.367 34.8529 155.655 35.0561C155.392 35.1314 155.119 35.1925 154.836 35.2396C154.159 35.3574 153.511 35.4163 152.893 35.4163Z" fill="#171E1D"/>
<path d="M5.56512 31.9274C5.56512 33.4641 4.31932 34.7099 2.78256 34.7099C1.24579 34.7099 0 33.4641 0 31.9274V6.84017C0 5.30341 1.24579 4.05762 2.78256 4.05762C4.31932 4.05762 5.56512 5.30341 5.56512 6.84018V31.9274Z" fill="#171E1D"/>
<path d="M18.4013 35.3724C14.7501 35.3724 12.0117 34.3566 10.1862 32.3249C8.36056 30.2932 7.44776 27.3634 7.44776 23.5355C7.44776 19.4427 8.37528 16.4687 10.2303 14.6137C12.1148 12.7586 14.8238 11.8311 18.3572 11.8311C20.8305 11.8311 22.8917 12.2728 24.5406 13.1561C26.1895 14.01 27.4115 15.3056 28.2065 17.0429C29.031 18.7802 29.4432 20.9444 29.4432 23.5355C29.4432 27.3634 28.4863 30.2932 26.5723 32.3249C24.6878 34.3566 21.9642 35.3724 18.4013 35.3724ZM18.4013 30.779C19.6969 30.779 20.7422 30.4846 21.5372 29.8957C22.3617 29.3068 22.9653 28.4823 23.3481 27.4223C23.7309 26.3328 23.9223 25.0372 23.9223 23.5355C23.9223 21.8572 23.7162 20.488 23.3039 19.4279C22.9211 18.3679 22.3175 17.5876 21.4931 17.0871C20.698 16.5865 19.6675 16.3362 18.4013 16.3362C17.1057 16.3362 16.0604 16.6012 15.2654 17.1312C14.4704 17.6612 13.8815 18.4563 13.4987 19.5163C13.1454 20.5763 12.9687 21.916 12.9687 23.5355C12.9687 25.8911 13.3957 27.6873 14.2496 28.924C15.1035 30.1607 16.4874 30.779 18.4013 30.779Z" fill="#171E1D"/>
<path d="M41.4561 35.1958C39.9839 35.1958 38.5705 34.9897 37.216 34.5774C35.8616 34.1652 34.6543 33.5027 33.5943 32.5899C32.5343 31.6771 31.6951 30.4993 31.0767 29.0565C30.4584 27.6137 30.1492 25.8617 30.1492 23.8005C30.1492 21.651 30.4437 19.8255 31.0326 18.3238C31.6215 16.8221 32.4312 15.6001 33.4618 14.6578C34.4924 13.6862 35.6849 12.9942 37.0394 12.582C38.4233 12.1403 39.8808 11.9194 41.412 11.9194C42.5898 11.9194 43.797 12.0372 45.0337 12.2728C45.7339 12.4062 46.3917 12.5726 47.0069 12.772C47.839 13.0418 48.3463 13.8502 48.3463 14.725V14.9588C48.3463 16.4603 46.7943 17.4713 45.3429 17.0871C44.3417 16.7926 43.3112 16.6454 42.2511 16.6454C40.19 16.6454 38.5852 17.1607 37.4369 18.1912C36.2885 19.2218 35.7143 20.9149 35.7143 23.2705C35.7143 25.685 36.2296 27.4812 37.2602 28.659C38.3202 29.8368 40.0575 30.4257 42.472 30.4257C43.5614 30.4257 44.6215 30.2637 45.652 29.9398C46.7022 29.5798 47.8503 30.4305 47.973 31.5338C48.0034 31.8062 48.0482 32.0714 48.1033 32.3503C48.2598 33.1426 47.8846 33.9531 47.1271 34.2332C46.4893 34.469 45.8357 34.6573 45.1662 34.7983C44.0473 35.0633 42.8106 35.1958 41.4561 35.1958Z" fill="#171E1D"/>
<circle cx="61.4387" cy="10.5696" r="2.98166" fill="#00C29F"/>
<path d="M78.0312 31.927C78.0312 33.4638 76.7854 34.7096 75.2487 34.7096C73.7119 34.7096 72.4661 33.4638 72.4661 31.927V6.09897C72.4661 4.5622 73.7119 3.31641 75.2487 3.31641C76.7854 3.31641 78.0312 4.5622 78.0312 6.09897V31.927Z" fill="#171E1D"/>
<path d="M57.3906 39.1398C52.43 38.4047 48.9864 33.7864 49.7297 28.7709C49.9318 27.407 50.0684 26.6161 50.2515 25.2494C50.3499 24.4886 51.6447 20.9098 52.7672 19.786C54.568 17.9833 55.3226 17.7092 57.26 16.9897C59.593 16.1233 62.7313 16.5838 64.6936 15.2666C66.0399 14.3664 66.9497 12.9267 67.1883 11.3164C67.2111 11.1629 67.2272 11.0189 67.2365 10.8766C67.2441 10.7814 67.2479 10.6857 67.2503 10.5898C67.253 10.4926 67.2531 10.3951 67.2505 10.2984C67.2436 10.0719 67.2245 9.84887 67.1936 9.63463C66.9185 7.73325 65.7272 6.10884 64.0081 5.29104C63.8156 5.19922 63.6103 5.11473 63.3966 5.0435C63.3059 5.01292 63.2136 4.98473 63.1208 4.95912C63.0294 4.9337 62.9378 4.90958 62.8443 4.88913C62.7069 4.8569 62.566 4.83075 62.4154 4.80844C62.2648 4.78612 62.1211 4.7701 61.9803 4.7611C61.8862 4.75375 61.7915 4.75026 61.6966 4.74807C61.6004 4.74569 61.5039 4.74589 61.4082 4.74886C61.3361 4.75136 61.2638 4.75515 61.1941 4.75932C61.1244 4.76349 61.0542 4.77024 60.9865 4.77866C60.9189 4.78579 60.8526 4.79311 60.787 4.80449C60.6511 4.82391 60.5265 4.84632 60.4064 4.87336C58.5161 5.28157 56.9237 6.67149 56.2537 8.50005L56.2527 8.50651L56.2505 8.51277C56.234 8.55384 56.2159 8.60522 56.1973 8.66049C56.1667 8.75222 56.1385 8.84562 56.1129 8.9394C56.0875 9.03189 56.0633 9.12457 56.0428 9.21911C56.0352 9.25228 56.0279 9.28416 56.0217 9.31752C55.668 9.94421 54.9573 10.2951 54.2516 10.1906C53.4003 10.0644 52.7769 9.34305 52.7672 8.47527C52.8345 8.16217 52.9202 7.84784 53.0201 7.54353L53.0282 7.52364C54.4356 3.28968 58.6283 0.6869 62.9929 1.33368C65.3871 1.68846 67.5027 2.97248 68.9512 4.94752C70.4009 6.92274 71.0009 9.34301 70.6422 11.7636L67.7358 31.3763C66.9926 36.3918 62.3512 39.8748 57.3906 39.1398Z" fill="#00C29F"/>
</svg>
