<svg width="13" height="14" viewBox="0 0 13 14" fill="none" xmlns="http://www.w3.org/2000/svg">
<path fill-rule="evenodd" clip-rule="evenodd" d="M7.01493 1.31756C6.96954 1.21459 6.89692 1.12739 6.80567 1.06626C6.71441 1.00514 6.60834 0.972656 6.5 0.972656C6.39166 0.972656 6.28559 1.00514 6.19433 1.06626C6.10308 1.12739 6.03046 1.21459 5.98507 1.31756L4.35748 5.0098L0.500606 5.48885C0.392998 5.50215 0.291283 5.54744 0.207498 5.61936C0.123713 5.69128 0.0613656 5.78682 0.0278354 5.89467C-0.00569488 6.00252 -0.00900466 6.11817 0.0182977 6.22793C0.0456001 6.33769 0.102372 6.43697 0.181894 6.51401L3.03443 9.27429L2.27734 13.2633C2.25631 13.3745 2.26614 13.4897 2.30567 13.5952C2.34519 13.7008 2.41276 13.7923 2.50038 13.8589C2.588 13.9255 2.69201 13.9645 2.80011 13.9712C2.90822 13.9779 3.0159 13.952 3.11042 13.8967L6.5 11.9105L9.88958 13.8967C9.98416 13.9523 10.092 13.9783 10.2002 13.9716C10.3085 13.965 10.4127 13.926 10.5004 13.8593C10.5882 13.7926 10.6558 13.7009 10.6953 13.5952C10.7348 13.4894 10.7445 13.3741 10.7232 13.2627L9.96614 9.27488L12.8181 6.51401C12.8976 6.43697 12.9544 6.33769 12.9817 6.22793C13.009 6.11817 13.0057 6.00252 12.9722 5.89467C12.9386 5.78682 12.8763 5.69128 12.7925 5.61936C12.7087 5.54744 12.607 5.50215 12.4994 5.48885L8.64195 5.00921L7.01493 1.31756Z" fill="#FAC50A"/>
</svg>
