<svg width="7" height="11" viewBox="0 0 7 11" fill="none" xmlns="http://www.w3.org/2000/svg">
<path d="M4.97016 3.13771C4.88655 3.57556 4.46382 3.86272 4.02598 3.7791C3.58813 3.69549 3.30097 3.27276 3.38459 2.83491C3.4682 2.39707 3.89093 2.10991 4.32877 2.19352C4.76662 2.27714 5.05378 2.69987 4.97016 3.13771Z" fill="#00C29F"/>
<path d="M1.65038 10.3771C0.36874 9.92981 -0.312355 8.527 0.139926 7.2312C0.262926 6.87879 0.33941 6.67544 0.457491 6.32135C0.522282 6.12407 1.04826 5.23825 1.4038 4.99645C1.97415 4.60857 2.18871 4.574 2.74036 4.48107C3.40469 4.36916 4.21574 4.65095 4.80436 4.40037C5.20805 4.22937 5.52305 3.89278 5.66826 3.47674C5.68211 3.43706 5.69371 3.3996 5.70342 3.36223C5.71027 3.33732 5.71612 3.31206 5.72165 3.28669C5.72729 3.26098 5.73228 3.23505 5.73649 3.20921C5.74616 3.14864 5.7524 3.08836 5.75508 3.02983C5.77846 2.51031 5.54419 2.01791 5.12863 1.71317C5.08212 1.67899 5.03182 1.6461 4.9786 1.6163C4.95604 1.60357 4.93292 1.59138 4.90957 1.57987C4.88655 1.56847 4.86341 1.5574 4.83959 1.54721C4.8047 1.53167 4.76857 1.51756 4.72966 1.50398C4.69075 1.4904 4.65336 1.47885 4.61637 1.4693C4.59172 1.46257 4.56672 1.45683 4.5416 1.45143C4.51615 1.44592 4.49047 1.44107 4.46489 1.437C4.44559 1.434 4.42618 1.43134 4.40742 1.42891C4.38867 1.42648 4.36968 1.42471 4.35123 1.42351C4.3329 1.42197 4.3149 1.42055 4.29689 1.42025C4.25976 1.41851 4.22549 1.41814 4.19219 1.41923C3.66885 1.43179 3.17488 1.7205 2.90387 2.17267L2.90329 2.17433L2.90238 2.17589C2.8959 2.18597 2.88849 2.19871 2.88073 2.21246C2.86795 2.2353 2.85572 2.25871 2.84414 2.28234C2.83268 2.30564 2.82154 2.32905 2.81129 2.35315C2.8076 2.36159 2.80403 2.36969 2.80068 2.37824C2.67481 2.52691 2.46804 2.58414 2.2857 2.5205C2.06577 2.44374 1.93663 2.22027 1.97812 1.98905C2.01191 1.90921 2.05066 1.82999 2.09266 1.75415L2.09584 1.74927C2.68503 0.694972 3.93199 0.215817 5.05965 0.609408C5.67821 0.825308 6.17553 1.27414 6.46038 1.87283C6.74555 2.47163 6.78218 3.14561 6.56389 3.77102L4.79526 8.83824C4.34298 10.134 2.93203 10.8245 1.65038 10.3771Z" fill="#00C29F"/>
</svg>
